<svg width="19" height="14" viewBox="0 0 19 14" fill="none" xmlns="http://www.w3.org/2000/svg">
<circle cx="1.5" cy="1.5" r="1.5" fill="#1B2021"/>
<circle cx="17.5" cy="1.5" r="1.5" fill="#1B2021"/>
<path d="M9.5 12C10.2959 12 10.8851 12.0883 11.3269 12.1768C11.4868 12.2088 11.6181 12.2388 11.7474 12.2682C11.8078 12.282 11.8678 12.2957 11.93 12.3094C12.0916 12.3451 12.3213 12.3943 12.5446 12.3983C12.7907 12.4027 13.1751 12.3556 13.5013 12.0482C13.7928 11.7734 13.8866 11.4267 13.9273 11.2153C14.0005 10.8348 14.0003 10.2752 14 9.62105C14 9.58105 14 9.54069 14 9.5C14 7.01472 11.9853 5 9.5 5C7.01472 5 5 7.01472 5 9.5C5 9.54069 4.99998 9.58105 4.99997 9.62105C4.9997 10.2752 4.99947 10.8348 5.07271 11.2153C5.11338 11.4267 5.20715 11.7734 5.49871 12.0482C5.82487 12.3556 6.20935 12.4027 6.45535 12.3983C6.67875 12.3943 6.90838 12.3451 7.07002 12.3094C7.13224 12.2957 7.19218 12.282 7.25255 12.2682C7.38187 12.2388 7.51317 12.2088 7.67305 12.1768C8.11488 12.0883 8.70415 12 9.5 12Z" stroke="#1B2021" stroke-width="2"/>
</svg>
