<svg width="26" height="28" viewBox="0 0 26 28" fill="none" xmlns="http://www.w3.org/2000/svg">
<g clip-path="url(#clip0_163_483)">
<path d="M24.9894 10.6269L24.9896 10.6267C25.5224 10.1576 25.6562 9.3626 25.3009 8.73549L25.3009 8.73543L23.6146 5.75849C23.2611 5.13461 22.5299 4.86174 21.873 5.09433L20.4832 5.58724L20.4832 5.58725C19.8011 5.82908 19.0488 5.75448 18.4259 5.3836L18.4258 5.3835L17.5685 4.87256C17.5685 4.87254 17.5685 4.87252 17.5684 4.8725C16.955 4.50704 16.5282 3.89022 16.3961 3.1841L16.3962 3.18433L24.9894 10.6269ZM24.9894 10.6269L23.8831 11.6017M24.9894 10.6269L23.8831 11.6017M2.9644 13.4914C2.96549 12.7672 2.65673 12.0768 2.11597 11.6007L1.00959 10.6259L1.00943 10.6257C0.476602 10.1566 0.342794 9.3616 0.698126 8.73449L0.698161 8.73443L2.38441 5.75749C2.38442 5.75747 2.38443 5.75745 2.38445 5.75743C2.73796 5.13359 3.47003 4.86082 4.12589 5.09328L5.51582 5.58624L5.51613 5.58635C6.19902 5.82805 6.95013 5.75341 7.57368 5.38282L7.57422 5.3825L8.43148 4.87156C8.43151 4.87154 8.43155 4.87152 8.43159 4.8715C9.04512 4.50599 9.47196 3.88907 9.60392 3.18284L9.87854 1.71612L2.9644 13.4918C2.9644 13.4917 2.9644 13.4915 2.9644 13.4914ZM2.9644 13.4914V13.999V14.507C2.9644 15.2301 2.65735 15.9206 2.11612 16.3971M2.9644 13.4914L2.11612 16.3971M2.11612 16.3971C2.11607 16.3972 2.11602 16.3972 2.11597 16.3973M2.11612 16.3971L2.11597 16.3973M2.11597 16.3973L1.00959 17.3721M2.11597 16.3973L1.00959 17.3721M1.00959 17.3721L1.00943 17.3723C0.476602 17.8414 0.342794 18.6364 0.698126 19.2635L0.698161 19.2636L2.38441 22.2405C2.38442 22.2405 2.38443 22.2405 2.38445 22.2406C2.73792 22.8643 3.46892 23.1372 4.12579 22.9048L1.00959 17.3721ZM16.1215 26.2839L16.1215 26.2837L16.3971 24.8172C16.529 24.1109 16.9559 23.494 17.5694 23.1285C17.5694 23.1285 17.5695 23.1285 17.5695 23.1284L18.4268 22.6175L18.4269 22.6174C19.0497 22.2465 19.8021 22.1719 20.4841 22.4137L20.4842 22.4138L21.8741 22.9067C22.53 23.1392 23.2621 22.8664 23.6156 22.2425L25.3018 19.2656L25.3019 19.2655C25.6572 18.6384 25.5234 17.8434 24.9906 17.3743L24.9904 17.3741L23.8831 16.3983C23.3424 15.9223 23.0336 15.232 23.0346 14.508C23.0346 14.5077 23.0346 14.5074 23.0346 14.5072M16.1215 26.2839L23.0346 14.5072M16.1215 26.2839C15.988 26.996 15.3807 27.5 14.6863 27.5H11.3137C10.6197 27.5 10.0121 26.9965 9.87754 26.2818C9.87753 26.2817 9.87751 26.2817 9.8775 26.2816L9.60294 24.8152M16.1215 26.2839L9.60294 24.8152M23.0346 14.5072L23.0346 14V13.492C23.0346 12.7689 23.3417 12.0783 23.8831 11.6017M23.0346 14.5072L23.8831 11.6017M9.60294 24.8152C9.47108 24.1095 9.04561 23.4923 8.4306 23.1265L9.60294 24.8152ZM16.1205 1.71734L16.3961 3.18384L9.87855 1.71602C10.0121 1.00393 10.6193 0.5 11.3137 0.5H14.6863C15.3807 0.5 15.9877 1.00384 16.1204 1.71653L16.1205 1.71734ZM5.51582 22.4118L4.12606 22.9047L8.43012 23.1262L7.57324 22.6155L7.57307 22.6154C6.95025 22.2445 6.19788 22.1699 5.51586 22.4117L5.51582 22.4118ZM8.08564 14C8.08564 16.752 10.2771 19 13 19C15.7229 19 17.9144 16.752 17.9144 14C17.9144 11.248 15.7229 9 13 9C10.2771 9 8.08564 11.248 8.08564 14Z" stroke="white"/>
</g>
<defs>
<clipPath id="clip0_163_483">
<rect width="26" height="28" fill="white"/>
</clipPath>
</defs>
</svg>
