<svg width="20" height="20" viewBox="0 0 20 20" fill="none" xmlns="http://www.w3.org/2000/svg">
<path d="M7.37727 7.25027C7.37727 5.74914 8.62541 4.526 10.1572 4.526C11.689 4.526 12.9371 5.74914 12.9371 7.25027C12.9371 8.75139 11.689 9.97453 10.1572 9.97453C8.62541 9.97453 7.37727 8.75139 7.37727 7.25027ZM11.7398 7.25027C11.7398 6.3929 11.0291 5.69647 10.1542 5.69647C9.27933 5.69647 8.56867 6.3929 8.56867 7.25027C8.56867 8.10763 9.27933 8.80406 10.1542 8.80406C11.0291 8.80406 11.7398 8.10763 11.7398 7.25027Z" fill="white"/>
<path d="M6.48265 13.0037C5.04005 11.3855 3.65012 9.38692 3.65012 7.70145C3.65012 4.19005 6.50899 1.33118 10.0204 1.33118C13.5318 1.33118 16.3907 4.19005 16.3907 7.70145C16.3907 9.39278 14.9949 11.3914 13.5523 13.0125C15.4309 13.5538 16.5282 14.4902 16.5282 15.608C16.5282 17.5948 13.166 18.6687 9.99991 18.6687C6.83672 18.6687 3.47162 17.5948 3.47162 15.608C3.47162 14.4931 4.58649 13.545 6.48265 13.0037ZM10.0233 2.50165C7.15567 2.50165 4.82351 4.8338 4.82351 7.70145C4.82351 9.91949 8.2881 13.349 10.0233 14.8384C11.7585 13.349 15.2231 9.91949 15.2231 7.70145C15.2231 4.8338 12.891 2.50165 10.0233 2.50165ZM9.99991 17.5012C13.2714 17.5012 15.3577 16.3805 15.3577 15.6109C15.3577 15.0988 14.4067 14.379 12.6393 13.9898C11.4864 15.1603 10.4915 15.9767 10.3949 16.0557L10.0262 16.3571L9.65755 16.0557C9.55806 15.9737 8.56023 15.1544 7.4044 13.981C5.59602 14.3702 4.64794 15.093 4.64794 15.608C4.64209 16.3805 6.72845 17.5012 9.99991 17.5012Z" fill="white"/>
</svg>
