<svg width="20" height="20" viewBox="0 0 20 20" fill="none" xmlns="http://www.w3.org/2000/svg">
<path d="M18 10C18 14.4126 14.4126 18 10 18C5.58737 18 2 14.4126 2 10C2 5.58737 5.58737 2 10 2C14.4126 2 18 5.58737 18 10ZM10 3.26316C6.27789 3.26316 3.26316 6.27789 3.26316 10C3.26316 13.7221 6.27789 16.7368 10 16.7368C13.7221 16.7368 16.7368 13.7221 16.7368 10C16.7368 6.27789 13.7221 3.26316 10 3.26316ZM10.8421 14.1432V9.09053C10.8421 8.61895 10.4716 8.24842 10 8.24842C9.52842 8.24842 9.1579 8.61895 9.1579 9.09053V14.1432C9.1579 14.6147 9.52842 14.9853 10 14.9853C10.4716 14.9853 10.8421 14.6147 10.8421 14.1432ZM10 5.01474C9.34316 5.01474 8.82105 5.53684 8.82105 6.19368C8.82105 6.85053 9.34316 7.37263 10 7.37263C10.6568 7.37263 11.1789 6.85053 11.1789 6.19368C11.1789 5.53684 10.6568 5.01474 10 5.01474Z" fill="white"/>
</svg>
