<svg width="16" height="16" viewBox="0 0 16 16" fill="none" xmlns="http://www.w3.org/2000/svg">
<g clip-path="url(#clip0_163_468)">
<path d="M15.4906 0.186327C15.1304 -0.0459426 14.6702 -0.0625332 14.2957 0.14485L1.02839 7.43369C0.345153 7.80974 -0.0493496 8.51484 0.00496597 9.27525C0.0592815 10.0357 0.545263 10.6827 1.27709 10.9647L4.63323 12.2616L4.77902 14.5013C4.81904 15.1373 5.22784 15.671 5.84532 15.8949C6.03971 15.9641 6.23696 16 6.43422 16C6.86302 16 7.28039 15.8369 7.59771 15.5244L9.15285 14.0064L11.7228 14.999C11.9687 15.093 12.2231 15.1401 12.4775 15.1401C12.8349 15.1401 13.1922 15.046 13.5124 14.8635C14.0584 14.5483 14.4157 14.0174 14.4901 13.4063L15.9909 1.2343C16.0452 0.819538 15.8537 0.418596 15.4906 0.186327ZM1.14845 9.19783C1.12558 8.86048 1.29139 8.55909 1.59441 8.39318L13.6239 1.7818L4.85049 11.1528L1.70304 9.93611C1.38001 9.81168 1.17132 9.53517 1.14845 9.19783ZM6.7887 14.7446C6.57429 14.9548 6.32273 14.8857 6.25126 14.858C6.17979 14.8331 5.94252 14.7225 5.92251 14.4294L5.81102 12.7123L8.00079 13.5584L6.7887 14.7446ZM13.358 13.2791C13.3266 13.5473 13.1693 13.7769 12.9292 13.9151C12.6891 14.0534 12.4061 14.0755 12.1459 13.9732L5.9854 11.5924L14.7159 2.26846L13.358 13.2791Z" fill="#1AAC80"/>
</g>
<defs>
<clipPath id="clip0_163_468">
<rect width="16" height="16" fill="white"/>
</clipPath>
</defs>
</svg>
