<svg width="20" height="20" viewBox="0 0 20 20" fill="none" xmlns="http://www.w3.org/2000/svg">
<path d="M10 18C7.95089 18 5.90177 17.2194 4.34379 15.6609C2.83219 14.1488 2 12.1399 2 10.0027C2 7.86558 2.83219 5.8567 4.34379 4.34459C5.85539 2.83248 7.86357 2 10 2C12.1364 2 14.1446 2.83248 15.6562 4.34459C17.1678 5.8567 18 7.86558 18 10.0027C18 12.1399 17.1678 14.1488 15.6562 15.6609C14.0982 17.2221 12.0491 18 10 18ZM14.884 5.11703C13.5362 3.76868 11.7681 3.09724 10 3.09724C8.23192 3.09724 6.46112 3.77141 5.11596 5.11703C2.42292 7.81099 2.42292 12.1972 5.11596 14.8912C7.809 17.5851 12.191 17.5851 14.8868 14.8912C17.5798 12.1945 17.5798 7.81099 14.884 5.11703Z" fill="#EE695E"/>
<path d="M12.6357 12.6394C12.5293 12.7458 12.3901 12.8004 12.251 12.8004C12.1118 12.8004 11.9727 12.7458 11.8663 12.6394L10.0136 10.7861L8.16095 12.6394C8.05453 12.7458 7.91538 12.8004 7.77623 12.8004C7.63707 12.8004 7.49792 12.7458 7.39151 12.6394C7.17868 12.4265 7.17868 12.0799 7.39151 11.867L9.24417 10.0137L7.39151 8.16038C7.17868 7.94748 7.17868 7.60084 7.39151 7.38794C7.60433 7.17505 7.95085 7.17505 8.16367 7.38794L10.0163 9.24124L11.869 7.38794C12.0818 7.17505 12.4283 7.17505 12.6412 7.38794C12.854 7.60084 12.854 7.94748 12.6412 8.16038L10.7885 10.0137L12.6412 11.867C12.8513 12.0826 12.8513 12.4265 12.6357 12.6394Z" fill="#EE695E"/>
</svg>
