<svg width="16" height="16" viewBox="0 0 16 16" fill="none" xmlns="http://www.w3.org/2000/svg">
<path d="M8.00003 16C8.43585 16 8.84182 15.8299 9.1463 15.5164C11.2179 13.406 14.6926 9.45075 14.6926 6.68955C14.6926 3 11.6926 0 8.00003 0C4.3075 0 1.3075 3 1.3075 6.69254C1.3075 9.45373 4.78212 13.406 6.85376 15.5194C7.15824 15.8299 7.56421 16 8.00003 16ZM8.00003 1.19403C11.0329 1.19403 13.4985 3.66269 13.4985 6.69254C13.4985 8.37313 11.5523 11.3612 8.29257 14.6836C8.13436 14.8448 7.85973 14.8448 7.70152 14.6836C4.44481 11.3612 2.50152 8.37313 2.50152 6.69254C2.50152 3.6597 4.9672 1.19403 8.00003 1.19403Z" fill="white"/>
<path d="M10.9435 6.69255C10.9435 5.07166 9.62405 3.74927 8.00017 3.74927C6.37629 3.74927 5.05688 5.06867 5.05688 6.69255C5.05688 8.31345 6.37629 9.63583 8.00017 9.63583C9.62405 9.63583 10.9435 8.31345 10.9435 6.69255ZM6.25091 6.69255C6.25091 5.72837 7.03599 4.9433 8.00017 4.9433C8.96435 4.9433 9.74942 5.72837 9.74942 6.69255C9.74942 7.65673 8.96435 8.4418 8.00017 8.4418C7.03599 8.4418 6.25091 7.65673 6.25091 6.69255Z" fill="white"/>
</svg>
