<svg width="374" height="268" viewBox="0 0 374 268" fill="none" xmlns="http://www.w3.org/2000/svg">
<path fill-rule="evenodd" clip-rule="evenodd" d="M304.534 60.8889C287.276 47.3231 265.968 42.7765 252.038 42.9514L251.926 42.9529H0V0.00607718H251.707C271.977 -0.22302 301.905 5.9819 327.35 25.9831C353.866 46.8269 374 81.5679 374 134C374 186.432 353.866 221.173 327.35 242.017C301.905 262.018 271.978 268.223 251.708 267.994C251.708 267.994 69.2405 267.994 55.0393 267.994C40.838 267.994 33.5 259.482 33.5 245.662C33.5 231.841 40.0556 225.047 55.0393 225.047C70.023 225.047 251.926 225.047 251.926 225.047L252.038 225.049C265.968 225.224 287.276 220.677 304.534 207.111C320.77 194.349 334.838 172.615 334.838 134C334.838 95.3849 320.77 73.651 304.534 60.8889Z" fill="white"/>
<path d="M34.7705 54.822C35.2885 54.822 35.6805 55.088 35.6805 55.704V65.07C35.6805 65.686 35.2745 65.952 34.7565 65.952C34.2525 65.952 33.8325 65.686 33.8325 65.07V57.076L33.0205 57.552C32.5165 57.846 31.9985 57.72 31.7605 57.3C31.5225 56.88 31.5785 56.488 32.1525 56.152L33.9165 55.116C34.1825 54.962 34.4485 54.822 34.7705 54.822ZM47.7825 60.436C47.7825 63.768 46.3825 65.966 43.8905 65.966C41.4685 65.966 40.0125 63.796 40.0125 60.436C40.0125 57.062 41.4685 54.822 43.8905 54.822C46.3825 54.822 47.7825 57.104 47.7825 60.436ZM41.8885 60.408C41.8885 62.956 42.6445 64.342 43.8905 64.342C45.1645 64.342 45.9065 62.97 45.9065 60.408C45.9065 57.762 45.1645 56.446 43.8905 56.446C42.6445 56.446 41.8885 57.762 41.8885 60.408ZM50.8126 63.824C50.8126 63.278 51.3026 62.97 51.7646 62.97C52.1706 62.97 52.7166 63.222 52.7166 63.824V65.658C52.7166 65.756 52.7726 65.812 52.8986 65.812H59.4926C59.9966 65.812 60.4166 66.148 60.4166 66.624C60.4166 67.1 59.9966 67.436 59.4926 67.436H52.0166C51.3306 67.436 50.8126 66.946 50.8126 66.302V63.824ZM49.1746 61.444C49.1746 61.038 49.4266 60.646 49.9306 60.646H60.9626C61.4666 60.646 61.7186 61.038 61.7186 61.444C61.7186 61.836 61.4666 62.242 60.9626 62.242H56.3846V64.048C56.3846 64.65 55.8386 64.902 55.4466 64.902C55.0546 64.902 54.5086 64.65 54.5086 64.048V62.242H49.9306C49.4266 62.242 49.1746 61.836 49.1746 61.444ZM50.8826 55.046C50.8826 54.514 51.3306 54.248 51.8066 54.248C52.2826 54.248 52.7306 54.514 52.7306 55.046V55.592H58.1626V55.046C58.1626 54.514 58.6106 54.248 59.0866 54.248C59.5626 54.248 60.0106 54.514 60.0106 55.046V58.14C60.0106 58.798 59.8426 59.092 59.3386 59.33C58.8066 59.582 57.2386 59.792 55.4466 59.792C53.6546 59.792 52.0866 59.582 51.5826 59.344C51.0506 59.092 50.8826 58.798 50.8826 58.14V55.046ZM52.7306 57.874C52.7306 57.944 52.7726 58 52.8426 58.014C53.1786 58.112 54.2846 58.224 55.4466 58.224C56.6086 58.224 57.7146 58.112 58.0506 58.014C58.1206 58 58.1626 57.944 58.1626 57.874V57.104H52.7306V57.874ZM72.274 54.626C72.274 54.024 72.82 53.772 73.212 53.772C73.604 53.772 74.15 54.024 74.15 54.626V62.648C74.15 63.25 73.604 63.502 73.212 63.502C72.82 63.502 72.274 63.25 72.274 62.648V58.434H70.86C70.356 58.434 70.076 58.098 70.076 57.65C70.076 57.202 70.356 56.866 70.86 56.866H72.274V54.626ZM62.908 60.786C62.908 60.422 63.104 60.17 63.44 60.002C65.05 59.19 65.932 58.126 65.932 56.6V56.32C65.19 56.292 64.49 56.236 63.874 56.096C63.258 55.956 63.006 55.536 63.132 55.074C63.244 54.668 63.664 54.5 64.098 54.542C65.05 54.682 66.016 54.752 66.884 54.752C67.752 54.752 68.718 54.682 69.67 54.542C70.104 54.5 70.524 54.668 70.636 55.074C70.762 55.536 70.51 55.956 69.894 56.096C69.264 56.236 68.564 56.292 67.808 56.32V56.558C67.808 58.168 68.536 58.994 70.23 59.918C70.566 60.1 70.776 60.352 70.776 60.674C70.776 61.192 70.384 61.514 69.866 61.514C69.656 61.514 69.432 61.458 69.292 61.388C68.438 60.968 67.402 60.17 66.87 59.204C66.324 60.17 65.358 60.926 64.406 61.43C64.238 61.514 64.014 61.57 63.762 61.57C63.314 61.57 62.908 61.206 62.908 60.786ZM65.092 63.124C65.092 62.522 65.638 62.27 66.03 62.27C66.422 62.27 66.968 62.522 66.968 63.124V65.588C66.968 65.714 67.052 65.798 67.178 65.798H73.66C74.164 65.798 74.444 66.134 74.444 66.61C74.444 67.086 74.164 67.422 73.66 67.422H66.296C65.61 67.422 65.092 66.932 65.092 66.288V63.124Z" fill="white"/>
<path d="M158.072 65.966C155.44 65.966 154.138 64.58 154.138 62.816C154.138 61.654 154.768 60.646 155.79 60.17C155.034 59.778 154.446 58.896 154.446 57.93C154.446 56.306 155.748 54.808 158.072 54.808C160.382 54.808 161.684 56.306 161.684 57.93C161.684 58.896 161.096 59.778 160.354 60.17C161.362 60.646 161.992 61.654 161.992 62.816C161.992 64.58 160.69 65.966 158.072 65.966ZM156 62.718C156 63.67 156.756 64.384 158.072 64.384C159.374 64.384 160.13 63.67 160.13 62.718C160.13 61.766 159.388 61.038 158.072 61.038C156.742 61.038 156 61.766 156 62.718ZM156.308 57.944C156.308 58.826 156.952 59.484 158.072 59.484C159.178 59.484 159.822 58.826 159.822 57.944C159.822 57.062 159.178 56.404 158.072 56.404C156.952 56.404 156.308 57.062 156.308 57.944ZM164.98 63.824C164.98 63.278 165.47 62.97 165.932 62.97C166.338 62.97 166.884 63.222 166.884 63.824V65.658C166.884 65.756 166.94 65.812 167.066 65.812H173.66C174.164 65.812 174.584 66.148 174.584 66.624C174.584 67.1 174.164 67.436 173.66 67.436H166.184C165.498 67.436 164.98 66.946 164.98 66.302V63.824ZM163.342 61.444C163.342 61.038 163.594 60.646 164.098 60.646H175.13C175.634 60.646 175.886 61.038 175.886 61.444C175.886 61.836 175.634 62.242 175.13 62.242H170.552V64.048C170.552 64.65 170.006 64.902 169.614 64.902C169.222 64.902 168.676 64.65 168.676 64.048V62.242H164.098C163.594 62.242 163.342 61.836 163.342 61.444ZM165.05 55.046C165.05 54.514 165.498 54.248 165.974 54.248C166.45 54.248 166.898 54.514 166.898 55.046V55.592H172.33V55.046C172.33 54.514 172.778 54.248 173.254 54.248C173.73 54.248 174.178 54.514 174.178 55.046V58.14C174.178 58.798 174.01 59.092 173.506 59.33C172.974 59.582 171.406 59.792 169.614 59.792C167.822 59.792 166.254 59.582 165.75 59.344C165.218 59.092 165.05 58.798 165.05 58.14V55.046ZM166.898 57.874C166.898 57.944 166.94 58 167.01 58.014C167.346 58.112 168.452 58.224 169.614 58.224C170.776 58.224 171.882 58.112 172.218 58.014C172.288 58 172.33 57.944 172.33 57.874V57.104H166.898V57.874ZM186.441 54.626C186.441 54.024 186.987 53.772 187.379 53.772C187.771 53.772 188.317 54.024 188.317 54.626V62.648C188.317 63.25 187.771 63.502 187.379 63.502C186.987 63.502 186.441 63.25 186.441 62.648V58.434H185.027C184.523 58.434 184.243 58.098 184.243 57.65C184.243 57.202 184.523 56.866 185.027 56.866H186.441V54.626ZM177.075 60.786C177.075 60.422 177.271 60.17 177.607 60.002C179.217 59.19 180.099 58.126 180.099 56.6V56.32C179.357 56.292 178.657 56.236 178.041 56.096C177.425 55.956 177.173 55.536 177.299 55.074C177.411 54.668 177.831 54.5 178.265 54.542C179.217 54.682 180.183 54.752 181.051 54.752C181.919 54.752 182.885 54.682 183.837 54.542C184.271 54.5 184.691 54.668 184.803 55.074C184.929 55.536 184.677 55.956 184.061 56.096C183.431 56.236 182.731 56.292 181.975 56.32V56.558C181.975 58.168 182.703 58.994 184.397 59.918C184.733 60.1 184.943 60.352 184.943 60.674C184.943 61.192 184.551 61.514 184.033 61.514C183.823 61.514 183.599 61.458 183.459 61.388C182.605 60.968 181.569 60.17 181.037 59.204C180.491 60.17 179.525 60.926 178.573 61.43C178.405 61.514 178.181 61.57 177.929 61.57C177.481 61.57 177.075 61.206 177.075 60.786ZM179.259 63.124C179.259 62.522 179.805 62.27 180.197 62.27C180.589 62.27 181.135 62.522 181.135 63.124V65.588C181.135 65.714 181.219 65.798 181.345 65.798H187.827C188.331 65.798 188.611 66.134 188.611 66.61C188.611 67.086 188.331 67.422 187.827 67.422H180.463C179.777 67.422 179.259 66.932 179.259 66.288V63.124Z" fill="white"/>
<path d="M157.652 193.59C158.842 192.708 159.458 191.91 159.458 190.888C159.458 189.852 158.716 189.39 157.918 189.39C157.274 189.39 156.812 189.712 156.434 190.356C156.042 191.042 155.132 191.056 154.782 190.412C154.684 190.244 154.67 189.922 154.768 189.698C155.146 188.788 156.238 187.808 157.974 187.808C159.934 187.808 161.334 189.124 161.334 190.888C161.334 192.568 160.48 193.548 158.688 194.948C157.75 195.676 156.952 196.656 156.602 197.258H160.858C161.278 197.258 161.67 197.538 161.67 198.07C161.67 198.644 161.208 198.882 160.858 198.882H155.342C154.824 198.882 154.39 198.616 154.39 197.944C154.39 196.67 156.182 194.696 157.652 193.59ZM164.98 196.824C164.98 196.278 165.47 195.97 165.932 195.97C166.338 195.97 166.884 196.222 166.884 196.824V198.658C166.884 198.756 166.94 198.812 167.066 198.812H173.66C174.164 198.812 174.584 199.148 174.584 199.624C174.584 200.1 174.164 200.436 173.66 200.436H166.184C165.498 200.436 164.98 199.946 164.98 199.302V196.824ZM163.342 194.444C163.342 194.038 163.594 193.646 164.098 193.646H175.13C175.634 193.646 175.886 194.038 175.886 194.444C175.886 194.836 175.634 195.242 175.13 195.242H170.552V197.048C170.552 197.65 170.006 197.902 169.614 197.902C169.222 197.902 168.676 197.65 168.676 197.048V195.242H164.098C163.594 195.242 163.342 194.836 163.342 194.444ZM165.05 188.046C165.05 187.514 165.498 187.248 165.974 187.248C166.45 187.248 166.898 187.514 166.898 188.046V188.592H172.33V188.046C172.33 187.514 172.778 187.248 173.254 187.248C173.73 187.248 174.178 187.514 174.178 188.046V191.14C174.178 191.798 174.01 192.092 173.506 192.33C172.974 192.582 171.406 192.792 169.614 192.792C167.822 192.792 166.254 192.582 165.75 192.344C165.218 192.092 165.05 191.798 165.05 191.14V188.046ZM166.898 190.874C166.898 190.944 166.94 191 167.01 191.014C167.346 191.112 168.452 191.224 169.614 191.224C170.776 191.224 171.882 191.112 172.218 191.014C172.288 191 172.33 190.944 172.33 190.874V190.104H166.898V190.874ZM186.441 187.626C186.441 187.024 186.987 186.772 187.379 186.772C187.771 186.772 188.317 187.024 188.317 187.626V195.648C188.317 196.25 187.771 196.502 187.379 196.502C186.987 196.502 186.441 196.25 186.441 195.648V191.434H185.027C184.523 191.434 184.243 191.098 184.243 190.65C184.243 190.202 184.523 189.866 185.027 189.866H186.441V187.626ZM177.075 193.786C177.075 193.422 177.271 193.17 177.607 193.002C179.217 192.19 180.099 191.126 180.099 189.6V189.32C179.357 189.292 178.657 189.236 178.041 189.096C177.425 188.956 177.173 188.536 177.299 188.074C177.411 187.668 177.831 187.5 178.265 187.542C179.217 187.682 180.183 187.752 181.051 187.752C181.919 187.752 182.885 187.682 183.837 187.542C184.271 187.5 184.691 187.668 184.803 188.074C184.929 188.536 184.677 188.956 184.061 189.096C183.431 189.236 182.731 189.292 181.975 189.32V189.558C181.975 191.168 182.703 191.994 184.397 192.918C184.733 193.1 184.943 193.352 184.943 193.674C184.943 194.192 184.551 194.514 184.033 194.514C183.823 194.514 183.599 194.458 183.459 194.388C182.605 193.968 181.569 193.17 181.037 192.204C180.491 193.17 179.525 193.926 178.573 194.43C178.405 194.514 178.181 194.57 177.929 194.57C177.481 194.57 177.075 194.206 177.075 193.786ZM179.259 196.124C179.259 195.522 179.805 195.27 180.197 195.27C180.589 195.27 181.135 195.522 181.135 196.124V198.588C181.135 198.714 181.219 198.798 181.345 198.798H187.827C188.331 198.798 188.611 199.134 188.611 199.61C188.611 200.086 188.331 200.422 187.827 200.422H180.463C179.777 200.422 179.259 199.932 179.259 199.288V196.124Z" fill="white"/>
<path d="M280.412 185.438C280.412 186.012 279.978 186.25 279.6 186.25H278.704V188.07C278.704 188.686 278.284 188.952 277.78 188.952C277.276 188.952 276.856 188.686 276.856 188.07V186.25H272.894C272.068 186.25 271.704 185.48 272.222 184.738L276.632 178.424C276.884 178.06 277.248 177.864 277.668 177.864H277.682C278.228 177.864 278.704 178.186 278.704 178.746V184.626H279.6C280.034 184.626 280.412 184.878 280.412 185.438ZM276.856 184.626V181.056L274.476 184.626H276.856ZM282.98 186.824C282.98 186.278 283.47 185.97 283.932 185.97C284.338 185.97 284.884 186.222 284.884 186.824V188.658C284.884 188.756 284.94 188.812 285.066 188.812H291.66C292.164 188.812 292.584 189.148 292.584 189.624C292.584 190.1 292.164 190.436 291.66 190.436H284.184C283.498 190.436 282.98 189.946 282.98 189.302V186.824ZM281.342 184.444C281.342 184.038 281.594 183.646 282.098 183.646H293.13C293.634 183.646 293.886 184.038 293.886 184.444C293.886 184.836 293.634 185.242 293.13 185.242H288.552V187.048C288.552 187.65 288.006 187.902 287.614 187.902C287.222 187.902 286.676 187.65 286.676 187.048V185.242H282.098C281.594 185.242 281.342 184.836 281.342 184.444ZM283.05 178.046C283.05 177.514 283.498 177.248 283.974 177.248C284.45 177.248 284.898 177.514 284.898 178.046V178.592H290.33V178.046C290.33 177.514 290.778 177.248 291.254 177.248C291.73 177.248 292.178 177.514 292.178 178.046V181.14C292.178 181.798 292.01 182.092 291.506 182.33C290.974 182.582 289.406 182.792 287.614 182.792C285.822 182.792 284.254 182.582 283.75 182.344C283.218 182.092 283.05 181.798 283.05 181.14V178.046ZM284.898 180.874C284.898 180.944 284.94 181 285.01 181.014C285.346 181.112 286.452 181.224 287.614 181.224C288.776 181.224 289.882 181.112 290.218 181.014C290.288 181 290.33 180.944 290.33 180.874V180.104H284.898V180.874ZM304.441 177.626C304.441 177.024 304.987 176.772 305.379 176.772C305.771 176.772 306.317 177.024 306.317 177.626V185.648C306.317 186.25 305.771 186.502 305.379 186.502C304.987 186.502 304.441 186.25 304.441 185.648V181.434H303.027C302.523 181.434 302.243 181.098 302.243 180.65C302.243 180.202 302.523 179.866 303.027 179.866H304.441V177.626ZM295.075 183.786C295.075 183.422 295.271 183.17 295.607 183.002C297.217 182.19 298.099 181.126 298.099 179.6V179.32C297.357 179.292 296.657 179.236 296.041 179.096C295.425 178.956 295.173 178.536 295.299 178.074C295.411 177.668 295.831 177.5 296.265 177.542C297.217 177.682 298.183 177.752 299.051 177.752C299.919 177.752 300.885 177.682 301.837 177.542C302.271 177.5 302.691 177.668 302.803 178.074C302.929 178.536 302.677 178.956 302.061 179.096C301.431 179.236 300.731 179.292 299.975 179.32V179.558C299.975 181.168 300.703 181.994 302.397 182.918C302.733 183.1 302.943 183.352 302.943 183.674C302.943 184.192 302.551 184.514 302.033 184.514C301.823 184.514 301.599 184.458 301.459 184.388C300.605 183.968 299.569 183.17 299.037 182.204C298.491 183.17 297.525 183.926 296.573 184.43C296.405 184.514 296.181 184.57 295.929 184.57C295.481 184.57 295.075 184.206 295.075 183.786ZM297.259 186.124C297.259 185.522 297.805 185.27 298.197 185.27C298.589 185.27 299.135 185.522 299.135 186.124V188.588C299.135 188.714 299.219 188.798 299.345 188.798H305.827C306.331 188.798 306.611 189.134 306.611 189.61C306.611 190.086 306.331 190.422 305.827 190.422H298.463C297.777 190.422 297.259 189.932 297.259 189.288V186.124Z" fill="white"/>
<path d="M275.502 83.092C275.768 81.174 276.692 78.99 279.156 78.822C279.982 78.766 280.976 78.878 281.69 79.382C282.096 79.662 282.208 80.11 282.012 80.474C281.76 80.922 281.242 80.95 280.822 80.712C280.192 80.362 279.73 80.334 279.254 80.418C278.022 80.642 277.49 81.804 277.35 83.526C277.84 83.05 278.554 82.756 279.352 82.756C281.536 82.756 282.782 84.478 282.782 86.34C282.782 88.216 281.466 89.952 279.212 89.952C276.888 89.952 275.726 88.216 275.502 86.368C275.362 85.206 275.348 84.282 275.502 83.092ZM277.378 86.354C277.378 87.544 278.05 88.37 279.212 88.37C280.29 88.37 280.92 87.558 280.92 86.354C280.92 85.15 280.29 84.338 279.212 84.338C278.05 84.338 277.378 85.164 277.378 86.354ZM285.98 87.824C285.98 87.278 286.47 86.97 286.932 86.97C287.338 86.97 287.884 87.222 287.884 87.824V89.658C287.884 89.756 287.94 89.812 288.066 89.812H294.66C295.164 89.812 295.584 90.148 295.584 90.624C295.584 91.1 295.164 91.436 294.66 91.436H287.184C286.498 91.436 285.98 90.946 285.98 90.302V87.824ZM284.342 85.444C284.342 85.038 284.594 84.646 285.098 84.646H296.13C296.634 84.646 296.886 85.038 296.886 85.444C296.886 85.836 296.634 86.242 296.13 86.242H291.552V88.048C291.552 88.65 291.006 88.902 290.614 88.902C290.222 88.902 289.676 88.65 289.676 88.048V86.242H285.098C284.594 86.242 284.342 85.836 284.342 85.444ZM286.05 79.046C286.05 78.514 286.498 78.248 286.974 78.248C287.45 78.248 287.898 78.514 287.898 79.046V79.592H293.33V79.046C293.33 78.514 293.778 78.248 294.254 78.248C294.73 78.248 295.178 78.514 295.178 79.046V82.14C295.178 82.798 295.01 83.092 294.506 83.33C293.974 83.582 292.406 83.792 290.614 83.792C288.822 83.792 287.254 83.582 286.75 83.344C286.218 83.092 286.05 82.798 286.05 82.14V79.046ZM287.898 81.874C287.898 81.944 287.94 82 288.01 82.014C288.346 82.112 289.452 82.224 290.614 82.224C291.776 82.224 292.882 82.112 293.218 82.014C293.288 82 293.33 81.944 293.33 81.874V81.104H287.898V81.874ZM307.441 78.626C307.441 78.024 307.987 77.772 308.379 77.772C308.771 77.772 309.317 78.024 309.317 78.626V86.648C309.317 87.25 308.771 87.502 308.379 87.502C307.987 87.502 307.441 87.25 307.441 86.648V82.434H306.027C305.523 82.434 305.243 82.098 305.243 81.65C305.243 81.202 305.523 80.866 306.027 80.866H307.441V78.626ZM298.075 84.786C298.075 84.422 298.271 84.17 298.607 84.002C300.217 83.19 301.099 82.126 301.099 80.6V80.32C300.357 80.292 299.657 80.236 299.041 80.096C298.425 79.956 298.173 79.536 298.299 79.074C298.411 78.668 298.831 78.5 299.265 78.542C300.217 78.682 301.183 78.752 302.051 78.752C302.919 78.752 303.885 78.682 304.837 78.542C305.271 78.5 305.691 78.668 305.803 79.074C305.929 79.536 305.677 79.956 305.061 80.096C304.431 80.236 303.731 80.292 302.975 80.32V80.558C302.975 82.168 303.703 82.994 305.397 83.918C305.733 84.1 305.943 84.352 305.943 84.674C305.943 85.192 305.551 85.514 305.033 85.514C304.823 85.514 304.599 85.458 304.459 85.388C303.605 84.968 302.569 84.17 302.037 83.204C301.491 84.17 300.525 84.926 299.573 85.43C299.405 85.514 299.181 85.57 298.929 85.57C298.481 85.57 298.075 85.206 298.075 84.786ZM300.259 87.124C300.259 86.522 300.805 86.27 301.197 86.27C301.589 86.27 302.135 86.522 302.135 87.124V89.588C302.135 89.714 302.219 89.798 302.345 89.798H308.827C309.331 89.798 309.611 90.134 309.611 90.61C309.611 91.086 309.331 91.422 308.827 91.422H301.463C300.777 91.422 300.259 90.932 300.259 90.288V87.124Z" fill="white"/>
<path d="M54 0L54 43" stroke="#D9D9D9" stroke-width="2"/>
<path d="M355.62 59L320.979 79" stroke="#D9D9D9" stroke-width="2"/>
<path d="M353.641 212L319 192" stroke="#D9D9D9" stroke-width="2"/>
<path d="M172 0L172 43" stroke="#D9D9D9" stroke-width="2"/>
<path d="M172 225L172 268" stroke="#D9D9D9" stroke-width="2"/>
</svg>
